{"title":"Tekken Kazuyas Revenge 2014 DVDRip SPA SUB XviD AC3-RARBG","uid":10742069,"size":1409681433,"categoryP":"video","categoryS":"movies","magnet":"?xt=urn:btih:34d254ad63f58a5fb86a126f2faaf707534286ac&amp;dn=Tekken+Kazuyas+Revenge+2014+DVDRip+SPA+SUB+XviD+AC3-RARBG&amp;tr=udp%3A%2F%2Ftracker.openbittorrent.com%3A80&amp;tr=udp%3A%2F%2Fopen.demonii.com%3A1337&amp;tr=udp%3A%2F%2Ftracker.coppersurfer.tk%3A6969&amp;tr=udp%3A%2F%2Fexodus.desync.com%3A6969","seeders":4,"leechers":0,"uploader":"TeX","files":2,"time":1407765719,"description":"Poster !!\n\n &lt;a href=&quot;\nhttp://s10.postimg.org/fjkh5ksyh/3riseofthetournament00.jpg&quot; rel=&quot;nofollow&quot; target=&quot;_NEW&quot;&gt;\nhttp://s10.postimg.org/fjkh5ksyh/3riseofthetournament00.jpg&lt;/a&gt;\n\nIMDB!\n &lt;a href=&quot;\nhttp://www.imdb.com/title/tt3462696/&quot; rel=&quot;nofollow&quot; target=&quot;_NEW&quot;&gt;\nhttp://www.imdb.com/title/tt3462696/&lt;/a&gt;\n\nScreenshots !!\n &lt;a href=&quot;\nhttp://s13.postimg.org/b6e16cd6v/vlcsnap_2014_08_11_01h31m02s64.png&quot; rel=&quot;nofollow&quot; target=&quot;_NEW&quot;&gt;\nhttp://s13.postimg.org/b6e16cd6v/vlcsnap_2014_08_11_01h31m02s64.png&lt;/a&gt; &lt;a href=&quot;\nhttp://s13.postimg.org/8eurfqeo7/vlcsnap_2014_08_11_01h31m09s132.png&quot; rel=&quot;nofollow&quot; target=&quot;_NEW&quot;&gt;\nhttp://s13.postimg.org/8eurfqeo7/vlcsnap_2014_08_11_01h31m09s132.png&lt;/a&gt; &lt;a href=&quot;\nhttp://s13.postimg.org/5ak3ixxvr/vlcsnap_2014_08_11_01h31m15s201.png&quot; rel=&quot;nofollow&quot; target=&quot;_NEW&quot;&gt;\nhttp://s13.postimg.org/5ak3ixxvr/vlcsnap_2014_08_11_01h31m15s201.png&lt;/a&gt; &lt;a href=&quot;\nhttp://s13.postimg.org/cmpjohg3r/vlcsnap_2014_08_11_01h31m23s15.png&quot; rel=&quot;nofollow&quot; target=&quot;_NEW&quot;&gt;\nhttp://s13.postimg.org/cmpjohg3r/vlcsnap_2014_08_11_01h31m23s15.png&lt;/a&gt; &lt;a href=&quot;\nhttp://s13.postimg.org/ihe4w7iyv/vlcsnap_2014_08_11_01h31m40s186.png&quot; rel=&quot;nofollow&quot; target=&quot;_NEW&quot;&gt;\nhttp://s13.postimg.org/ihe4w7iyv/vlcsnap_2014_08_11_01h31m40s186.png&lt;/a&gt;\n\n[mediainfo]\n\nGeneral\nComplete name : Tekken Kazuyas Revenge 2014 DVDRip SPA SUB XviD AC3-gnula.avi\nFormat : AVI\nFormat/Info : Audio Video Interleave\nFile size : 1.31 GiB\nDuration : 1h 28mn\nOverall bit rate : 2 119 Kbps\nWriting application : VirtualDubMod 1.5.10.2 (build 2540/release)\nWriting library : VirtualDubMod build 2540/release\n\nVideo\nID : 0\nFormat : MPEG-4 Visual\nFormat profile : Advanced Simple@L5\nFormat settings, BVOP : 1\nFormat settings, QPel : No\nFormat settings, GMC : No warppoints\nFormat settings, Matrix : Default (H.263)\nMuxing mode : Packed bitstream\nCodec ID : XVID\nCodec ID/Hint : XviD\nDuration : 1h 28mn\nBit rate : 1 662 Kbps\nWidth : 720 pixels\nHeight : 304 pixels\nDisplay aspect ratio : 2.35:1\nFrame rate : 23.976 fps\nColor space : YUV\nChroma subsampling : 4:2:0\nBit depth : 8 bits\nScan type : Progressive\nCompression mode : Lossy\nBits/(Pixel*Frame) : 0.317\nStream size : 1.03 GiB (78%)\nWriting library : XviD 64\n\nAudio\nID : 1\nFormat : AC-3\nFormat/Info : Audio Coding 3\nMode extension : CM (complete main)\nFormat settings, Endianness : Big\nCodec ID : 2000\nDuration : 1h 28mn\nBit rate mode : Constant\nBit rate : 448 Kbps\nChannel(s) : 6 channels\nChannel positions : Front: L C R, Side: L R, LFE\nSampling rate : 48.0 KHz\nBit depth : 16 bits\nCompression mode : Lossy\nStream size : 284 MiB (21%)\nAlignment : Split accross interleaves\nInterleave, duration : 42 ms (1.00 video frame)\nInterleave, preload duration : 500 ms\n\n [/mediainfo]\n\n[b]Notes:\n\nGreetz To ALL :)[/b]","torrent":{"xt":"urn:btih:34d254ad63f58a5fb86a126f2faaf707534286ac","amp;dn":"Tekken+Kazuyas+Revenge+2014+DVDRip+SPA+SUB+XviD+AC3-RARBG","amp;tr":["udp%3A%2F%2Ftracker.openbittorrent.com%3A80","udp%3A%2F%2Fopen.demonii.com%3A1337","udp%3A%2F%2Ftracker.coppersurfer.tk%3A6969","udp%3A%2F%2Fexodus.desync.com%3A6969"],"infoHash":"34d254ad63f58a5fb86a126f2faaf707534286ac","infoHashBuffer":{"type":"Buffer","data":[52,210,84,173,99,245,138,95,184,106,18,111,47,170,247,7,83,66,134,172]},"announce":[],"urlList":[]}}